<?xml version="1.0" encoding="UTF-8" standalone="no"?>
<!DOCTYPE svg PUBLIC "-//W3C//DTD SVG 1.1//EN" "http://www.w3.org/Graphics/SVG/1.1/DTD/svg11.dtd">
<svg width="100%" height="100%" viewBox="0 0 625 137" version="1.1" xmlns="http://www.w3.org/2000/svg" xmlns:xlink="http://www.w3.org/1999/xlink" xml:space="preserve" xmlns:serif="http://www.serif.com/" style="fill-rule:evenodd;clip-rule:evenodd;stroke-linejoin:round;stroke-miterlimit:2;">
    <g transform="matrix(1,0,0,1,-812.769,-1185.1)">
        <g transform="matrix(1,0,0,1,376.842,515.479)">
            <g transform="matrix(50,0,0,50,598.345,705.598)">
                <path d="M0.954,-0.525L0.954,-0.7L0.06,-0.7L0.06,-0L0.274,-0L0.274,-0.273L0.936,-0.273L0.936,-0.428L0.274,-0.428L0.274,-0.525L0.954,-0.525Z" style="fill:#fff;fill-rule:nonzero;"/>
            </g>
            <g transform="matrix(50,0,0,50,647.595,705.598)">
                <path d="M1.02,-0.35C1.02,-0.7 1.001,-0.719 0.535,-0.719C0.068,-0.719 0.048,-0.7 0.048,-0.35C0.048,-0 0.067,0.019 0.535,0.019C1.002,0.019 1.02,-0 1.02,-0.35ZM0.534,-0.544C0.807,-0.544 0.806,-0.544 0.806,-0.349C0.806,-0.156 0.807,-0.156 0.535,-0.156C0.262,-0.156 0.262,-0.156 0.262,-0.35C0.262,-0.544 0.262,-0.544 0.534,-0.544Z" style="fill:#fff;fill-rule:nonzero;"/>
            </g>
            <g transform="matrix(50,0,0,50,701.045,705.598)">
                <path d="M1.02,-0.35C1.02,-0.7 1.001,-0.719 0.535,-0.719C0.068,-0.719 0.048,-0.7 0.048,-0.35C0.048,-0 0.067,0.019 0.535,0.019C1.002,0.019 1.02,-0 1.02,-0.35ZM0.534,-0.544C0.807,-0.544 0.806,-0.544 0.806,-0.349C0.806,-0.156 0.807,-0.156 0.535,-0.156C0.262,-0.156 0.262,-0.156 0.262,-0.35C0.262,-0.544 0.262,-0.544 0.534,-0.544Z" style="fill:#fff;fill-rule:nonzero;"/>
            </g>
            <g transform="matrix(50,0,0,50,754.495,705.598)">
                <path d="M0.547,-0.001C1.014,-0.001 1.032,-0.019 1.032,-0.35C1.032,-0.681 1.013,-0.7 0.547,-0.7L0.06,-0.7L0.06,-0L0.547,-0.001ZM0.274,-0.175L0.274,-0.525L0.546,-0.525C0.818,-0.525 0.818,-0.525 0.818,-0.349C0.818,-0.175 0.818,-0.175 0.547,-0.175L0.274,-0.175Z" style="fill:#fff;fill-rule:nonzero;"/>
            </g>
            <g transform="matrix(50,0,0,50,808.445,705.598)">
                <path d="M0.524,-0.428C0.292,-0.428 0.264,-0.428 0.264,-0.486C0.264,-0.544 0.29,-0.544 0.524,-0.544C0.758,-0.544 0.779,-0.544 0.784,-0.483L0.998,-0.483C0.998,-0.696 0.913,-0.719 0.525,-0.719C0.136,-0.719 0.05,-0.7 0.05,-0.486C0.05,-0.272 0.128,-0.272 0.524,-0.272C0.759,-0.272 0.793,-0.272 0.793,-0.214C0.793,-0.156 0.757,-0.156 0.524,-0.156C0.292,-0.156 0.264,-0.154 0.256,-0.217L0.041,-0.217C0.041,0.001 0.128,0.019 0.524,0.019C0.92,0.019 1.008,-0 1.008,-0.214C1.008,-0.428 0.925,-0.428 0.524,-0.428Z" style="fill:#fff;fill-rule:nonzero;"/>
            </g>
            <g transform="matrix(50,0,0,50,860.945,705.598)">
                <path d="M0.991,-0.7L0.009,-0.7L0.009,-0.544L0.393,-0.544L0.393,-0L0.607,-0L0.607,-0.544L0.991,-0.544L0.991,-0.7Z" style="fill:#fff;fill-rule:nonzero;"/>
            </g>
            <g transform="matrix(50,0,0,50,910.995,705.598)">
                <path d="M0.988,-0.7L0.774,-0.7L0.774,-0.349C0.774,-0.155 0.773,-0.155 0.522,-0.155C0.269,-0.155 0.269,-0.155 0.269,-0.35L0.269,-0.7L0.055,-0.7L0.055,-0.35C0.055,-0 0.047,0.019 0.522,0.019C0.996,0.019 0.988,-0 0.988,-0.35L0.988,-0.7Z" style="fill:#fff;fill-rule:nonzero;"/>
            </g>
            <g transform="matrix(50,0,0,50,963.195,705.598)">
                <path d="M0.954,-0.525L0.954,-0.7L0.06,-0.7L0.06,-0L0.274,-0L0.274,-0.273L0.936,-0.273L0.936,-0.428L0.274,-0.428L0.274,-0.525L0.954,-0.525Z" style="fill:#fff;fill-rule:nonzero;"/>
            </g>
            <g transform="matrix(50,0,0,50,1012.44,705.598)">
                <path d="M0.954,-0.525L0.954,-0.7L0.06,-0.7L0.06,-0L0.274,-0L0.274,-0.273L0.936,-0.273L0.936,-0.428L0.274,-0.428L0.274,-0.525L0.954,-0.525Z" style="fill:#fff;fill-rule:nonzero;"/>
            </g>
            <g transform="matrix(50,0,0,50,598.345,755.598)">
                <path d="M0.831,-0L1.07,-0L0.69,-0.7L0.38,-0.7L0,-0L0.239,-0L0.302,-0.115L0.768,-0.115L0.831,-0ZM0.386,-0.271L0.535,-0.545L0.684,-0.271L0.386,-0.271L0.386,-0.271Z" style="fill:#fff;fill-rule:nonzero;"/>
            </g>
            <g transform="matrix(50,0,0,50,651.845,755.598)">
                <path d="M1.006,-0.434C1.006,-0.676 0.974,-0.7 0.7,-0.7L0.06,-0.7L0.06,-0L0.274,-0L0.274,-0.167L0.7,-0.167C0.793,-0.167 0.794,-0.14 0.794,-0.058L0.794,-0L1.006,-0L1.006,-0.058C1.006,-0.224 0.981,-0.237 0.923,-0.267C0.981,-0.295 1.006,-0.33 1.006,-0.434ZM0.7,-0.342C0.7,-0.342 0.274,-0.342 0.274,-0.342L0.274,-0.525L0.7,-0.525C0.793,-0.525 0.793,-0.493 0.793,-0.434C0.793,-0.374 0.795,-0.342 0.7,-0.342Z" style="fill:#fff;fill-rule:nonzero;"/>
            </g>
            <g transform="matrix(50,0,0,50,704.695,755.598)">
                <path d="M0.801,-0.233C0.788,-0.156 0.735,-0.156 0.535,-0.156C0.262,-0.156 0.262,-0.156 0.262,-0.35C0.262,-0.544 0.262,-0.544 0.534,-0.544C0.735,-0.544 0.788,-0.544 0.801,-0.466L1.018,-0.466C1.008,-0.705 0.942,-0.719 0.535,-0.719C0.068,-0.719 0.048,-0.7 0.048,-0.35C0.048,-0 0.067,0.019 0.535,0.019C0.943,0.019 1.008,0.005 1.018,-0.233L0.801,-0.233Z" style="fill:#fff;fill-rule:nonzero;"/>
            </g>
            <g transform="matrix(50,0,0,50,757.445,755.598)">
                <path d="M0.776,-0.7L0.776,-0.428L0.274,-0.428L0.274,-0.7L0.06,-0.7L0.06,-0L0.274,-0L0.274,-0.272L0.776,-0.272L0.776,-0L0.989,-0L0.989,-0.7L0.776,-0.7Z" style="fill:#fff;fill-rule:nonzero;"/>
            </g>
            <g transform="matrix(50,0,0,50,809.945,755.598)">
                <path d="M0.06,-0.7L0.06,-0L0.274,-0L0.274,-0.7L0.06,-0.7Z" style="fill:#fff;fill-rule:nonzero;"/>
            </g>
            <g transform="matrix(50,0,0,50,826.645,755.598)">
                <path d="M0.732,-0.7L0.485,-0.212L0.238,-0.7L-0.001,-0.7L0.354,-0L0.617,-0L0.972,-0.7L0.732,-0.7Z" style="fill:#fff;fill-rule:nonzero;"/>
            </g>
            <g transform="matrix(50,0,0,50,875.195,755.598)">
                <path d="M0.274,-0.272L0.948,-0.272L0.948,-0.428L0.274,-0.428L0.274,-0.525L0.966,-0.525L0.966,-0.7L0.06,-0.7L0.06,0L0.966,-0.001L0.966,-0.175L0.274,-0.175L0.274,-0.272Z" style="fill:#fff;fill-rule:nonzero;"/>
            </g>
            <g transform="matrix(50,0,0,50,598.345,805.598)">
                <path d="M0.547,-0.7L0.06,-0.7L0.06,-0L0.547,-0.001C1.014,-0.001 1.032,-0.019 1.032,-0.35C1.032,-0.681 1.013,-0.7 0.547,-0.7ZM0.818,-0.175L0.274,-0.175L0.274,-0.525L0.818,-0.525L0.818,-0.175Z" style="fill:#fff;fill-rule:nonzero;"/>
            </g>
            <g transform="matrix(50,0,0,50,652.295,805.598)">
                <path d="M0.06,-0.7L0.06,-0L0.274,-0L0.274,-0.7L0.06,-0.7Z" style="fill:#fff;fill-rule:nonzero;"/>
            </g>
            <g transform="matrix(50,0,0,50,668.995,805.598)">
                <path d="M0.732,-0.7L0.485,-0.212L0.238,-0.7L-0.001,-0.7L0.354,-0L0.617,-0L0.972,-0.7L0.732,-0.7Z" style="fill:#fff;fill-rule:nonzero;"/>
            </g>
            <g transform="matrix(50,0,0,50,717.545,805.598)">
                <path d="M0.06,-0.7L0.06,-0L0.274,-0L0.274,-0.7L0.06,-0.7Z" style="fill:#fff;fill-rule:nonzero;"/>
            </g>
            <g transform="matrix(50,0,0,50,734.245,805.598)">
                <path d="M0.524,-0.428C0.292,-0.428 0.264,-0.428 0.264,-0.486C0.264,-0.544 0.29,-0.544 0.524,-0.544C0.758,-0.544 0.779,-0.544 0.784,-0.483L0.998,-0.483C0.998,-0.696 0.913,-0.719 0.525,-0.719C0.136,-0.719 0.05,-0.7 0.05,-0.486C0.05,-0.272 0.128,-0.272 0.524,-0.272C0.759,-0.272 0.793,-0.272 0.793,-0.214C0.793,-0.156 0.757,-0.156 0.524,-0.156C0.292,-0.156 0.264,-0.154 0.256,-0.217L0.041,-0.217C0.041,0.001 0.128,0.019 0.524,0.019C0.92,0.019 1.008,-0 1.008,-0.214C1.008,-0.428 0.925,-0.428 0.524,-0.428Z" style="fill:#fff;fill-rule:nonzero;"/>
            </g>
            <g transform="matrix(50,0,0,50,786.745,805.598)">
                <path d="M0.06,-0.7L0.06,-0L0.274,-0L0.274,-0.7L0.06,-0.7Z" style="fill:#fff;fill-rule:nonzero;"/>
            </g>
            <g transform="matrix(50,0,0,50,803.445,805.598)">
                <path d="M1.02,-0.35C1.02,-0.7 1.001,-0.719 0.535,-0.719C0.068,-0.719 0.048,-0.7 0.048,-0.35C0.048,-0 0.067,0.019 0.535,0.019C1.002,0.019 1.02,-0 1.02,-0.35ZM0.534,-0.544C0.807,-0.544 0.806,-0.544 0.806,-0.349C0.806,-0.156 0.807,-0.156 0.535,-0.156C0.262,-0.156 0.262,-0.156 0.262,-0.35C0.262,-0.544 0.262,-0.544 0.534,-0.544Z" style="fill:#fff;fill-rule:nonzero;"/>
            </g>
            <g transform="matrix(50,0,0,50,856.895,805.598)">
                <path d="M0.793,-0.7L0.793,-0.195L0.341,-0.7L0.06,-0.7L0.06,-0L0.274,-0L0.274,-0.481L0.704,-0L1.006,-0L1.006,-0.7L0.793,-0.7Z" style="fill:#fff;fill-rule:nonzero;"/>
            </g>
        </g>
        <g transform="matrix(4.16667,0,0,4.16667,876.886,1202.99)">
            <path d="M14.018,24.28L0,24.28C-0.893,24.28 -1.718,23.804 -2.165,23.031L-13.297,3.749C-14.259,2.083 -13.056,0 -11.132,0L14.018,-0L14.018,24.28Z" style="fill:#e69718;"/>
        </g>
        <g transform="matrix(4.16667,0,0,4.16667,876.886,1202.99)">
            <path d="M0,26.03C-1.518,26.03 -2.92,25.221 -3.68,23.907L-14.812,4.624C-16.448,1.792 -14.403,-1.75 -11.132,-1.75L15.768,-1.75L15.768,26.03L0,26.03ZM12.268,22.53C12.268,22.53 12.268,1.75 12.268,1.75L-11.132,1.75C-11.709,1.75 -12.07,2.374 -11.781,2.874L-0.65,22.155C-0.516,22.387 -0.268,22.53 0,22.53L12.268,22.53Z" style="fill:#fff;"/>
        </g>
    </g>
</svg>
